HIERARCHY
ROOT Hips
{
	OFFSET 0.000000 0.000000 0.000000
	CHANNELS 6 Xposition Yposition Zposition Zrotation Yrotation Xrotation 
	JOINT LeftUpLeg_virtual
	{
		OFFSET 0.000000 0.000000 0.000000
		CHANNELS 3 Zrotation Yrotation Xrotation
		JOINT LeftUpLeg
		{
			OFFSET 8.479694 -4.795517 -0.379053
			CHANNELS 3 Zrotation Yrotation Xrotation
			JOINT LeftLeg
			{
				OFFSET 0.485052 -32.551468 0.112863
				CHANNELS 3 Zrotation Yrotation Xrotation
				JOINT LeftFoot
				{
					OFFSET 0.438033 -32.635670 -3.012641
					CHANNELS 3 Zrotation Yrotation Xrotation
					JOINT LeftToeBase
					{
						OFFSET 0.970169 -13.225353 11.864223
						CHANNELS 3 Zrotation Yrotation Xrotation
						End Site
						{
							OFFSET 0.000000 0.000000 0.000000
						}
					}
				}
			}
		}
	}
	JOINT RightUpLeg_virtual
	{
		OFFSET 0.000000 0.000000 0.000000
		CHANNELS 3 Zrotation Yrotation Xrotation
		JOINT RightUpLeg
		{
			OFFSET -8.479694 -4.795517 -0.379053
			CHANNELS 3 Zrotation Yrotation Xrotation
			JOINT RightLeg
			{
				OFFSET -0.484100 -32.551483 0.112903
				CHANNELS 3 Zrotation Yrotation Xrotation
				JOINT RightFoot
				{
					OFFSET -0.438985 -32.635651 -3.012681
					CHANNELS 3 Zrotation Yrotation Xrotation
					JOINT RightToeBase
					{
						OFFSET -0.970169 -13.225354 11.864223
						CHANNELS 3 Zrotation Yrotation Xrotation
						End Site
						{
							OFFSET 0.000000 0.000000 0.000000
						}
					}
				}
			}
		}
	}
	JOINT Spine_virtual
	{
		OFFSET 0.000000 0.000000 0.000000
		CHANNELS 3 Zrotation Yrotation Xrotation
		JOINT Spine
		{
			OFFSET 0.000000 7.722015 1.166203
			CHANNELS 3 Zrotation Yrotation Xrotation
			JOINT Spine1
			{
				OFFSET 0.000000 12.024086 0.248766
				CHANNELS 3 Zrotation Yrotation Xrotation
				JOINT Spine2
				{
					OFFSET -0.000000 11.503036 -0.491240
					CHANNELS 3 Zrotation Yrotation Xrotation
					JOINT Neck_virtual
					{
						OFFSET 0.000000 0.000000 0.000000
						CHANNELS 3 Zrotation Yrotation Xrotation
						JOINT Neck
						{
							OFFSET 0.000000 18.430687 -3.123054
							CHANNELS 3 Zrotation Yrotation Xrotation
							JOINT Head
							{
								OFFSET -0.000000 9.051071 1.034021
								CHANNELS 3 Zrotation Yrotation Xrotation
								End Site
								{
									OFFSET 0.000000 0.000000 0.000000
								}
							}
						}
					}
					JOINT LeftShoulder_virtual
					{
						OFFSET 0.000000 0.000000 0.000000
						CHANNELS 3 Zrotation Yrotation Xrotation
						JOINT LeftShoulder
						{
							OFFSET 6.197824 13.665230 -4.064723
							CHANNELS 3 Zrotation Yrotation Xrotation
							JOINT LeftArm
							{
								OFFSET 7.778132 -0.187073 -1.709282
								CHANNELS 3 Zrotation Yrotation Xrotation
								JOINT LeftForeArm
								{
									OFFSET 21.954697 0.000000 -2.041093
									CHANNELS 3 Zrotation Yrotation Xrotation
									JOINT LeftHand
									{
										OFFSET 22.992908 0.000000 -0.870901
										CHANNELS 3 Zrotation Yrotation Xrotation
										End Site
										{
											OFFSET 0.000000 0.000000 0.000000
										}
									}
								}
							}
						}
					}
					JOINT RightShoulder_virtual
					{
						OFFSET 0.000000 0.000000 0.000000
						CHANNELS 3 Zrotation Yrotation Xrotation
						JOINT RightShoulder
						{
							OFFSET -6.197824 13.665230 -4.064723
							CHANNELS 3 Zrotation Yrotation Xrotation
							JOINT RightArm
							{
								OFFSET -7.778132 -0.187073 -1.709282
								CHANNELS 3 Zrotation Yrotation Xrotation
								JOINT RightForeArm
								{
									OFFSET -21.954697 0.000000 -2.041093
									CHANNELS 3 Zrotation Yrotation Xrotation
									JOINT RightHand
									{
										OFFSET -22.992908 0.000000 -0.870901
										CHANNELS 3 Zrotation Yrotation Xrotation
										End Site
										{
											OFFSET 0.000000 0.000000 0.000000
										}
									}
								}
							}
						}
					}
				}
			}
		}
	}
}
MOTION
Frames: 4
Frame Time: 0.033333
-9.394252 80.988251 53.694721 179.894055 3.014111 179.870423 -4.044703 -0.334675 10.623721 -4.742188 1.431460 -23.322400 10.691216 4.717185 30.736145 1.551388 -9.962094 -12.554858 0.000000 0.000000 0.000000 -1.368213 -0.777684 10.251603 -1.145243 -1.869242 -20.881739 -1.566863 2.453750 30.948646 8.453864 5.836905 -10.778222 0.000000 0.000000 0.000000 2.691845 1.721934 -1.931251 -4.908117 1.282612 -1.657928 0.637244 -3.021557 4.199670 0.007009 0.019618 -0.013653 0.632229 -2.193630 5.662924 0.936314 2.343922 -3.214602 0.000000 0.000000 0.000000 2.015832 -1.435093 2.548202 -4.029482 7.159374 -6.274733 4.029044 -13.892109 -50.512698 0.083470 -30.411315 -0.710500 0.000000 0.000000 0.000000 -1.721072 -0.250265 2.034489 21.143971 -8.679688 -11.202572 -5.902009 5.430678 -64.233305 0.510958 19.082223 6.156357 0.000000 0.000000 0.000000 
-9.427449 81.003128 53.821945 179.882512 3.019637 179.865614 -3.969142 -0.371469 10.547058 -4.674912 1.053194 -23.322963 10.802597 4.545853 30.537755 1.726557 -9.793725 -12.670245 0.000000 0.000000 0.000000 -1.367601 -0.818352 10.185725 -1.102361 -2.104749 -20.936116 -1.536362 2.235966 30.974881 8.476208 5.824239 -10.753485 0.000000 0.000000 0.000000 2.722999 1.747252 -1.828721 -4.929160 1.267612 -1.590997 0.624064 -3.033724 4.211593 -0.021899 0.015986 -0.030467 0.682471 -2.141475 5.671338 0.936862 2.354786 -3.241426 0.000000 0.000000 0.000000 2.042496 -1.395887 2.586832 -4.004875 7.211153 -6.221100 3.924792 -14.068511 -50.497583 0.142855 -30.312639 -0.759872 0.000000 0.000000 0.000000 -1.667083 -0.208321 2.030336 21.053821 -8.664662 -11.356621 -5.839854 5.334959 -64.093047 0.596163 18.987419 6.269057 0.000000 0.000000 0.000000 
-9.489383 81.014091 53.953861 179.952494 3.059912 179.866243 -3.886875 -0.310562 10.470849 -4.737601 0.975157 -23.324287 10.793105 4.545568 30.446098 1.772938 -9.775706 -12.540440 0.000000 0.000000 0.000000 -1.286919 -0.845504 10.175742 -1.158798 -2.018249 -20.961861 -1.539964 2.245136 30.888199 8.475753 5.789923 -10.706558 0.000000 0.000000 0.000000 2.805582 1.770127 -1.698369 -4.925147 1.266782 -1.558531 0.654429 -3.023219 4.235387 0.004592 0.031506 -0.019180 0.626059 -2.239652 5.701979 0.922753 2.351936 -3.325320 0.000000 0.000000 0.000000 1.980887 -1.430082 2.597809 -4.046014 7.193661 -6.278651 3.952580 -14.053440 -50.428731 0.106918 -30.170964 -0.756051 0.000000 0.000000 0.000000 -1.725626 -0.209397 2.072343 21.134265 -8.735378 -11.135426 -6.007402 5.324529 -64.108524 0.546108 18.808181 6.122235 0.000000 0.000000 0.000000 
-9.566108 81.031372 54.062675 179.885490 2.953282 179.953997 -3.875337 -0.517710 10.419507 -4.878819 1.021156 -23.351636 10.769754 4.603897 30.270015 1.862838 -9.742968 -12.403228 0.000000 0.000000 0.000000 -1.264991 -1.085675 9.995314 -1.310676 -1.895558 -20.981562 -1.552012 2.404963 30.800420 8.478528 5.765897 -10.642244 0.000000 0.000000 0.000000 2.815797 1.746669 -1.628401 -5.004215 1.254463 -1.552495 0.622186 -3.048571 4.246932 -0.000604 -0.003823 -0.004839 0.661124 -2.181453 5.757881 0.890831 2.328331 -3.394811 0.000000 0.000000 0.000000 2.004989 -1.403887 2.673137 -4.011628 7.201366 -6.289155 3.851445 -14.077529 -50.486200 0.098440 -30.020590 -0.831675 0.000000 0.000000 0.000000 -1.680807 -0.258092 2.162215 20.958463 -8.738089 -11.324673 -5.966204 5.304590 -64.035400 0.636327 18.685057 6.091409 0.000000 0.000000 0.000000 
